<svg width="19" height="9" xmlns="http://www.w3.org/2000/svg" shape-rendering="crispEdges"><path fill="#257179" d="m12,0h2v1h-2m-8,7h2v1h-2"/><path fill="#29366f" d="m14,0h2v1h-2m-8,7h2v1h-2"/><path fill="#3b5dc9" d="m16,0h2v1h-2m-8,7h2v1h-2"/><path fill="#73eff7" d="m18,2h1v2h-1m-6,4h2v1h-2"/><path fill="#94b0c2" d="m18,4h1v2h-1m-1,1h1v1h-1m-3,0h2v1h-2"/><path fill="#5d275d" d="m0,0h2v1h-1v1h-1"/><path fill="#a7f070" d="m8,0h2v1h-2m-8,7h2v1h-2"/><path fill="#41a6f6" d="m18,0h1v2h-1m-8,6h2v1h-2"/><path fill="#1a1c2c" d="m2,2h3v3h-2v2h-1m1,-3h1v-1h-1m3,-1h3v1h-1v3h1v1h-3v-1h1v-3h-1m4,-1h1v2h-1m2,-2h1v2h-1m2,-2h1v4h-1m2,-4h1v4h-1m-5,-2h1v1h-1m-1,0h1v2h-1m2,-2h1v2h-1m3,-1h1v1h-1"/><path fill="#ef7d57" d="m4,0h2v1h-2m-4,3h1v2h-1"/><path fill="#ffcd75" d="m6,0h2v1h-2m-6,5h1v2h-1"/><path fill="#38b764" d="m10,0h2v1h-2m-8,7h2v1h-2"/><path fill="#f4f4f4" d="m1,1h17v6h-1v1h-16m1,-1h1v-2h2v-3h-3m4,1h1v3h-1v1h3v-1h-1v-3h1v-1h-3m4,2h1v1h-1v2h1v-2h1v2h1v-2h-1v-1h1v-2h-1v2h-1v-2h-1m4,4h1v1h1v-1h1v-4h-1v4h-1v-4h-1m-11,1h1v1h-1"/><path fill="#566c86" d="m18,6h1v2h-1m-2,0h2v1h-2"/><path fill="#b13e53" d="m2,0h2v1h-2m-2,1h1v2h-1"/><path fill="#333c57" d="m18,8h1v1h-1"/></svg>