<svg width="19" height="9" xmlns="http://www.w3.org/2000/svg" shape-rendering="crispEdges"><g fill="#1a1c2cff"><path d="m11,4h1v1h-1"/><path d="m15,6h1v1h-1"/><path d="m3,4h1v1h-1"/><path d="m6,6h1v1h-1"/><path d="m8,6h1v1h-1"/><path d="m2,2h3v1h-3"/><path d="m6,2h3v1h-3"/><path d="m10,2h1v2h-1"/><path d="m12,2h1v2h-1"/><path d="m12,5h1v2h-1"/><path d="m4,3h1v2h-1"/><path d="m10,5h1v2h-1"/><path d="m2,3h1v4h-1"/><path d="m7,3h1v4h-1"/><path d="m14,2h1v4h-1"/><path d="m16,2h1v4h-1"/></g><g fill="#257179ff"><path d="m4,8h2v1h-2"/><path d="m12,0h2v1h-2"/></g><g fill="#29366fff"><path d="m14,0h2v1h-2"/><path d="m6,8h2v1h-2"/></g><g fill="#333c57ff"><path d="m18,8h1v1h-1"/></g><g fill="#38b764ff"><path d="m2,8h2v1h-2"/><path d="m10,0h2v1h-2"/></g><g fill="#3b5dc9ff"><path d="m8,8h2v1h-2"/><path d="m16,0h2v1h-2"/></g><g fill="#41a6f6ff"><path d="m10,8h2v1h-2"/><path d="m18,0h1v2h-1"/></g><g fill="#566c86ff"><path d="m16,8h2v1h-2"/><path d="m18,6h1v2h-1"/></g><g fill="#5d275dff"><path d="m0,1h1v1h-1"/><path d="m0,0h2v1h-2"/></g><g fill="#73eff7ff"><path d="m12,8h2v1h-2"/><path d="m18,2h1v2h-1"/></g><g fill="#94b0c2ff"><path d="m17,7h1v1h-1"/><path d="m14,8h2v1h-2"/><path d="m18,4h1v2h-1"/></g><g fill="#a7f070ff"><path d="m0,8h2v1h-2"/><path d="m8,0h2v1h-2"/></g><g fill="#b13e53ff"><path d="m2,0h2v1h-2"/><path d="m0,2h1v2h-1"/></g><g fill="#ef7d57ff"><path d="m4,0h2v1h-2"/><path d="m0,4h1v2h-1"/></g><g fill="#f4f4f4ff"><path d="m3,3h1v1h-1"/><path d="m12,4h1v1h-1"/><path d="m15,7h1v1h-1"/><path d="m10,4h1v1h-1"/><path d="m12,7h1v1h-1"/><path d="m10,7h1v1h-1"/><path d="m2,7h1v1h-1"/><path d="m6,7h3v1h-3"/><path d="m1,1h17v1h-17"/><path d="m16,6h1v2h-1"/><path d="m14,6h1v2h-1"/><path d="m11,2h1v2h-1"/><path d="m8,3h1v3h-1"/><path d="m11,5h1v3h-1"/><path d="m6,3h1v3h-1"/><path d="m3,5h2v3h-2"/><path d="m15,2h1v4h-1"/><path d="m17,2h1v5h-1"/><path d="m13,2h1v6h-1"/><path d="m9,2h1v6h-1"/><path d="m5,2h1v6h-1"/><path d="m1,2h1v6h-1"/></g><g fill="#ffcd75ff"><path d="m6,0h2v1h-2"/><path d="m0,6h1v2h-1"/></g></svg>