<svg width="19" height="9" xmlns="http://www.w3.org/2000/svg" shape-rendering="crispEdges"><path fill="#5d275dff" d="m0,0h2v1h-1v1h-1v-2"/><path fill="#b13e53ff" d="m2,0h2v1h-2v-1"/><path fill="#ef7d57ff" d="m4,0h2v1h-2v-1"/><path fill="#ffcd75ff" d="m6,0h2v1h-2v-1"/><path fill="#a7f070ff" d="m8,0h2v1h-2v-1"/><path fill="#38b764ff" d="m10,0h2v1h-2v-1"/><path fill="#257179ff" d="m12,0h2v1h-2v-1"/><path fill="#29366fff" d="m14,0h2v1h-2v-1"/><path fill="#3b5dc9ff" d="m16,0h2v1h-2v-1"/><path fill="#41a6f6ff" d="m18,0h1v2h-1v-2"/><path fill="#f4f4f4ff" d="m1,1h17v6h-1v1h-16v-7"/><path fill="#b13e53ff" d="m0,2h1v2h-1v-2"/><path fill="#1a1c2cff" d="m2,2h3v3h-2v2h-1v-5"/><path fill="#1a1c2cff" d="m6,2h3v1h-1v3h1v1h-3v-1h1v-3h-1v-1"/><path fill="#1a1c2cff" d="m10,2h1v2h-1v-2"/><path fill="#1a1c2cff" d="m12,2h1v2h-1v-2"/><path fill="#1a1c2cff" d="m14,2h1v4h-1v-4"/><path fill="#1a1c2cff" d="m16,2h1v4h-1v-4"/><path fill="#73eff7ff" d="m18,2h1v2h-1v-2"/><path fill="#f4f4f4ff" d="m3,3h1v1h-1v-1"/><path fill="#ef7d57ff" d="m0,4h1v2h-1v-2"/><path fill="#1a1c2cff" d="m11,4h1v1h-1v-1"/><path fill="#94b0c2ff" d="m18,4h1v2h-1v-2"/><path fill="#1a1c2cff" d="m10,5h1v2h-1v-2"/><path fill="#1a1c2cff" d="m12,5h1v2h-1v-2"/><path fill="#ffcd75ff" d="m0,6h1v2h-1v-2"/><path fill="#1a1c2cff" d="m15,6h1v1h-1v-1"/><path fill="#566c86ff" d="m18,6h1v2h-1v-2"/><path fill="#94b0c2ff" d="m17,7h1v1h-1v-1"/><path fill="#a7f070ff" d="m0,8h2v1h-2v-1"/><path fill="#38b764ff" d="m2,8h2v1h-2v-1"/><path fill="#257179ff" d="m4,8h2v1h-2v-1"/><path fill="#29366fff" d="m6,8h2v1h-2v-1"/><path fill="#3b5dc9ff" d="m8,8h2v1h-2v-1"/><path fill="#41a6f6ff" d="m10,8h2v1h-2v-1"/><path fill="#73eff7ff" d="m12,8h2v1h-2v-1"/><path fill="#94b0c2ff" d="m14,8h2v1h-2v-1"/><path fill="#566c86ff" d="m16,8h2v1h-2v-1"/><path fill="#333c57ff" d="m18,8h1v1h-1v-1"/></svg>