<svg width="380" height="180" xmlns="http://www.w3.org/2000/svg" shape-rendering="crispEdges"><g fill="#1a1c2cff"><path d="m140,60h20v20h-20"/><path d="m140,120h20v20h-20"/><path d="m280,80h20v20h-20"/><path d="m140,80h20v20h-20"/><path d="m320,80h20v20h-20"/><path d="m80,40h20v20h-20"/><path d="m300,120h20v20h-20"/><path d="m80,80h20v20h-20"/><path d="m60,80h20v20h-20"/><path d="m40,80h20v20h-20"/><path d="m200,40h20v20h-20"/><path d="m120,40h20v20h-20"/><path d="m240,120h20v20h-20"/><path d="m160,40h20v20h-20"/><path d="m140,40h20v20h-20"/><path d="m280,40h20v20h-20"/><path d="m40,100h20v20h-20"/><path d="m320,60h20v20h-20"/><path d="m140,100h20v20h-20"/><path d="m280,60h20v20h-20"/><path d="m200,100h20v20h-20"/><path d="m240,60h20v20h-20"/><path d="m240,100h20v20h-20"/><path d="m200,60h20v20h-20"/><path d="m280,100h20v20h-20"/><path d="m320,100h20v20h-20"/><path d="m220,80h20v20h-20"/><path d="m40,120h20v20h-20"/><path d="m80,60h20v20h-20"/><path d="m200,120h20v20h-20"/><path d="m60,40h20v20h-20"/><path d="m40,40h20v20h-20"/><path d="m320,40h20v20h-20"/><path d="m160,120h20v20h-20"/><path d="m240,40h20v20h-20"/><path d="m120,120h20v20h-20"/><path d="m40,60h20v20h-20"/></g><g fill="#257179ff"><path d="m260,0h20v20h-20"/><path d="m80,160h20v20h-20"/><path d="m100,160h20v20h-20"/><path d="m240,0h20v20h-20"/></g><g fill="#29366fff"><path d="m120,160h20v20h-20"/><path d="m140,160h20v20h-20"/><path d="m300,0h20v20h-20"/><path d="m280,0h20v20h-20"/></g><g fill="#333c57ff"><path d="m360,160h20v20h-20"/></g><g fill="#38b764ff"><path d="m60,160h20v20h-20"/><path d="m220,0h20v20h-20"/><path d="m40,160h20v20h-20"/><path d="m200,0h20v20h-20"/></g><g fill="#3b5dc9ff"><path d="m180,160h20v20h-20"/><path d="m320,0h20v20h-20"/><path d="m160,160h20v20h-20"/><path d="m340,0h20v20h-20"/></g><g fill="#41a6f6ff"><path d="m360,0h20v20h-20"/><path d="m360,20h20v20h-20"/><path d="m220,160h20v20h-20"/><path d="m200,160h20v20h-20"/></g><g fill="#566c86ff"><path d="m340,160h20v20h-20"/><path d="m360,120h20v20h-20"/><path d="m360,140h20v20h-20"/><path d="m320,160h20v20h-20"/></g><g fill="#5d275dff"><path d="m0,0h20v20h-20"/><path d="m20,0h20v20h-20"/><path d="m0,20h20v20h-20"/></g><g fill="#73eff7ff"><path d="m360,60h20v20h-20"/><path d="m360,40h20v20h-20"/><path d="m260,160h20v20h-20"/><path d="m240,160h20v20h-20"/></g><g fill="#94b0c2ff"><path d="m280,160h20v20h-20"/><path d="m300,160h20v20h-20"/><path d="m360,100h20v20h-20"/><path d="m340,140h20v20h-20"/><path d="m360,80h20v20h-20"/></g><g fill="#a7f070ff"><path d="m180,0h20v20h-20"/><path d="m0,160h20v20h-20"/><path d="m160,0h20v20h-20"/><path d="m20,160h20v20h-20"/></g><g fill="#b13e53ff"><path d="m0,60h20v20h-20"/><path d="m40,0h20v20h-20"/><path d="m60,0h20v20h-20"/><path d="m0,40h20v20h-20"/></g><g fill="#ef7d57ff"><path d="m0,80h20v20h-20"/><path d="m80,0h20v20h-20"/><path d="m100,0h20v20h-20"/><path d="m0,100h20v20h-20"/></g><g fill="#f4f4f4ff"><path d="m160,80h20v20h-20"/><path d="m200,80h20v20h-20"/><path d="m240,80h20v20h-20"/><path d="m260,80h20v20h-20"/><path d="m180,80h20v20h-20"/><path d="m300,80h20v20h-20"/><path d="m120,80h20v20h-20"/><path d="m340,80h20v20h-20"/><path d="m100,80h20v20h-20"/><path d="m20,80h20v20h-20"/><path d="m20,100h20v20h-20"/><path d="m340,60h20v20h-20"/><path d="m60,100h20v20h-20"/><path d="m80,100h20v20h-20"/><path d="m100,100h20v20h-20"/><path d="m120,100h20v20h-20"/><path d="m300,60h20v20h-20"/><path d="m160,100h20v20h-20"/><path d="m180,100h20v20h-20"/><path d="m260,60h20v20h-20"/><path d="m220,100h20v20h-20"/><path d="m220,60h20v20h-20"/><path d="m260,100h20v20h-20"/><path d="m180,60h20v20h-20"/><path d="m300,100h20v20h-20"/><path d="m160,60h20v20h-20"/><path d="m340,100h20v20h-20"/><path d="m120,60h20v20h-20"/><path d="m20,120h20v20h-20"/><path d="m100,60h20v20h-20"/><path d="m60,120h20v20h-20"/><path d="m80,120h20v20h-20"/><path d="m100,120h20v20h-20"/><path d="m60,60h20v20h-20"/><path d="m20,60h20v20h-20"/><path d="m340,40h20v20h-20"/><path d="m180,120h20v20h-20"/><path d="m300,40h20v20h-20"/><path d="m220,120h20v20h-20"/><path d="m260,40h20v20h-20"/><path d="m260,120h20v20h-20"/><path d="m280,120h20v20h-20"/><path d="m220,40h20v20h-20"/><path d="m320,120h20v20h-20"/><path d="m340,120h20v20h-20"/><path d="m180,40h20v20h-20"/><path d="m20,140h20v20h-20"/><path d="m40,140h20v20h-20"/><path d="m60,140h20v20h-20"/><path d="m80,140h20v20h-20"/><path d="m100,140h20v20h-20"/><path d="m120,140h20v20h-20"/><path d="m140,140h20v20h-20"/><path d="m160,140h20v20h-20"/><path d="m180,140h20v20h-20"/><path d="m200,140h20v20h-20"/><path d="m220,140h20v20h-20"/><path d="m240,140h20v20h-20"/><path d="m260,140h20v20h-20"/><path d="m280,140h20v20h-20"/><path d="m300,140h20v20h-20"/><path d="m320,140h20v20h-20"/><path d="m100,40h20v20h-20"/><path d="m20,40h20v20h-20"/><path d="m340,20h20v20h-20"/><path d="m320,20h20v20h-20"/><path d="m300,20h20v20h-20"/><path d="m280,20h20v20h-20"/><path d="m260,20h20v20h-20"/><path d="m240,20h20v20h-20"/><path d="m220,20h20v20h-20"/><path d="m200,20h20v20h-20"/><path d="m180,20h20v20h-20"/><path d="m160,20h20v20h-20"/><path d="m140,20h20v20h-20"/><path d="m120,20h20v20h-20"/><path d="m100,20h20v20h-20"/><path d="m80,20h20v20h-20"/><path d="m60,20h20v20h-20"/><path d="m40,20h20v20h-20"/><path d="m20,20h20v20h-20"/></g><g fill="#ffcd75ff"><path d="m0,120h20v20h-20"/><path d="m0,140h20v20h-20"/><path d="m140,0h20v20h-20"/><path d="m120,0h20v20h-20"/></g><g style="fill:none;stroke-width:1;stroke:black"><path d="m140,60h20v20h-20"/><path d="m140,120h20v20h-20"/><path d="m280,80h20v20h-20"/><path d="m140,80h20v20h-20"/><path d="m320,80h20v20h-20"/><path d="m80,40h20v20h-20"/><path d="m300,120h20v20h-20"/><path d="m80,80h20v20h-20"/><path d="m60,80h20v20h-20"/><path d="m40,80h20v20h-20"/><path d="m200,40h20v20h-20"/><path d="m120,40h20v20h-20"/><path d="m240,120h20v20h-20"/><path d="m160,40h20v20h-20"/><path d="m140,40h20v20h-20"/><path d="m280,40h20v20h-20"/><path d="m40,100h20v20h-20"/><path d="m320,60h20v20h-20"/><path d="m140,100h20v20h-20"/><path d="m280,60h20v20h-20"/><path d="m200,100h20v20h-20"/><path d="m240,60h20v20h-20"/><path d="m240,100h20v20h-20"/><path d="m200,60h20v20h-20"/><path d="m280,100h20v20h-20"/><path d="m320,100h20v20h-20"/><path d="m220,80h20v20h-20"/><path d="m40,120h20v20h-20"/><path d="m80,60h20v20h-20"/><path d="m200,120h20v20h-20"/><path d="m60,40h20v20h-20"/><path d="m40,40h20v20h-20"/><path d="m320,40h20v20h-20"/><path d="m160,120h20v20h-20"/><path d="m240,40h20v20h-20"/><path d="m120,120h20v20h-20"/><path d="m40,60h20v20h-20"/><path d="m260,0h20v20h-20"/><path d="m80,160h20v20h-20"/><path d="m100,160h20v20h-20"/><path d="m240,0h20v20h-20"/><path d="m120,160h20v20h-20"/><path d="m140,160h20v20h-20"/><path d="m300,0h20v20h-20"/><path d="m280,0h20v20h-20"/><path d="m360,160h20v20h-20"/><path d="m60,160h20v20h-20"/><path d="m220,0h20v20h-20"/><path d="m40,160h20v20h-20"/><path d="m200,0h20v20h-20"/><path d="m180,160h20v20h-20"/><path d="m320,0h20v20h-20"/><path d="m160,160h20v20h-20"/><path d="m340,0h20v20h-20"/><path d="m360,0h20v20h-20"/><path d="m360,20h20v20h-20"/><path d="m220,160h20v20h-20"/><path d="m200,160h20v20h-20"/><path d="m340,160h20v20h-20"/><path d="m360,120h20v20h-20"/><path d="m360,140h20v20h-20"/><path d="m320,160h20v20h-20"/><path d="m0,0h20v20h-20"/><path d="m20,0h20v20h-20"/><path d="m0,20h20v20h-20"/><path d="m360,60h20v20h-20"/><path d="m360,40h20v20h-20"/><path d="m260,160h20v20h-20"/><path d="m240,160h20v20h-20"/><path d="m280,160h20v20h-20"/><path d="m300,160h20v20h-20"/><path d="m360,100h20v20h-20"/><path d="m340,140h20v20h-20"/><path d="m360,80h20v20h-20"/><path d="m180,0h20v20h-20"/><path d="m0,160h20v20h-20"/><path d="m160,0h20v20h-20"/><path d="m20,160h20v20h-20"/><path d="m0,60h20v20h-20"/><path d="m40,0h20v20h-20"/><path d="m60,0h20v20h-20"/><path d="m0,40h20v20h-20"/><path d="m0,80h20v20h-20"/><path d="m80,0h20v20h-20"/><path d="m100,0h20v20h-20"/><path d="m0,100h20v20h-20"/><path d="m160,80h20v20h-20"/><path d="m200,80h20v20h-20"/><path d="m240,80h20v20h-20"/><path d="m260,80h20v20h-20"/><path d="m180,80h20v20h-20"/><path d="m300,80h20v20h-20"/><path d="m120,80h20v20h-20"/><path d="m340,80h20v20h-20"/><path d="m100,80h20v20h-20"/><path d="m20,80h20v20h-20"/><path d="m20,100h20v20h-20"/><path d="m340,60h20v20h-20"/><path d="m60,100h20v20h-20"/><path d="m80,100h20v20h-20"/><path d="m100,100h20v20h-20"/><path d="m120,100h20v20h-20"/><path d="m300,60h20v20h-20"/><path d="m160,100h20v20h-20"/><path d="m180,100h20v20h-20"/><path d="m260,60h20v20h-20"/><path d="m220,100h20v20h-20"/><path d="m220,60h20v20h-20"/><path d="m260,100h20v20h-20"/><path d="m180,60h20v20h-20"/><path d="m300,100h20v20h-20"/><path d="m160,60h20v20h-20"/><path d="m340,100h20v20h-20"/><path d="m120,60h20v20h-20"/><path d="m20,120h20v20h-20"/><path d="m100,60h20v20h-20"/><path d="m60,120h20v20h-20"/><path d="m80,120h20v20h-20"/><path d="m100,120h20v20h-20"/><path d="m60,60h20v20h-20"/><path d="m20,60h20v20h-20"/><path d="m340,40h20v20h-20"/><path d="m180,120h20v20h-20"/><path d="m300,40h20v20h-20"/><path d="m220,120h20v20h-20"/><path d="m260,40h20v20h-20"/><path d="m260,120h20v20h-20"/><path d="m280,120h20v20h-20"/><path d="m220,40h20v20h-20"/><path d="m320,120h20v20h-20"/><path d="m340,120h20v20h-20"/><path d="m180,40h20v20h-20"/><path d="m20,140h20v20h-20"/><path d="m40,140h20v20h-20"/><path d="m60,140h20v20h-20"/><path d="m80,140h20v20h-20"/><path d="m100,140h20v20h-20"/><path d="m120,140h20v20h-20"/><path d="m140,140h20v20h-20"/><path d="m160,140h20v20h-20"/><path d="m180,140h20v20h-20"/><path d="m200,140h20v20h-20"/><path d="m220,140h20v20h-20"/><path d="m240,140h20v20h-20"/><path d="m260,140h20v20h-20"/><path d="m280,140h20v20h-20"/><path d="m300,140h20v20h-20"/><path d="m320,140h20v20h-20"/><path d="m100,40h20v20h-20"/><path d="m20,40h20v20h-20"/><path d="m340,20h20v20h-20"/><path d="m320,20h20v20h-20"/><path d="m300,20h20v20h-20"/><path d="m280,20h20v20h-20"/><path d="m260,20h20v20h-20"/><path d="m240,20h20v20h-20"/><path d="m220,20h20v20h-20"/><path d="m200,20h20v20h-20"/><path d="m180,20h20v20h-20"/><path d="m160,20h20v20h-20"/><path d="m140,20h20v20h-20"/><path d="m120,20h20v20h-20"/><path d="m100,20h20v20h-20"/><path d="m80,20h20v20h-20"/><path d="m60,20h20v20h-20"/><path d="m40,20h20v20h-20"/><path d="m20,20h20v20h-20"/><path d="m0,120h20v20h-20"/><path d="m0,140h20v20h-20"/><path d="m140,0h20v20h-20"/><path d="m120,0h20v20h-20"/></g><path d="m0,0h380v180h-380nz" style="fill:none;stroke-width:1;stroke:black"/></svg>