<svg width="380" height="180" xmlns="http://www.w3.org/2000/svg" shape-rendering="crispEdges"><path fill="#5d275dff" d="m0,0h40v20h-20v20h-20v-40"/><path fill="#b13e53ff" d="m40,0h40v20h-40v-20"/><path fill="#ef7d57ff" d="m80,0h40v20h-40v-20"/><path fill="#ffcd75ff" d="m120,0h40v20h-40v-20"/><path fill="#a7f070ff" d="m160,0h40v20h-40v-20"/><path fill="#38b764ff" d="m200,0h40v20h-40v-20"/><path fill="#257179ff" d="m240,0h40v20h-40v-20"/><path fill="#29366fff" d="m280,0h40v20h-40v-20"/><path fill="#3b5dc9ff" d="m320,0h40v20h-40v-20"/><path fill="#41a6f6ff" d="m360,0h20v40h-20v-40"/><path fill="#f4f4f4ff" d="m20,20h340v120h-20v20h-320v-140"/><path fill="#b13e53ff" d="m0,40h20v40h-20v-40"/><path fill="#1a1c2cff" d="m40,40h60v60h-40v40h-20v-100"/><path fill="#1a1c2cff" d="m120,40h60v20h-20v60h20v20h-60v-20h20v-60h-20v-20"/><path fill="#1a1c2cff" d="m200,40h20v40h-20v-40"/><path fill="#1a1c2cff" d="m240,40h20v40h-20v-40"/><path fill="#1a1c2cff" d="m280,40h20v80h-20v-80"/><path fill="#1a1c2cff" d="m320,40h20v80h-20v-80"/><path fill="#73eff7ff" d="m360,40h20v40h-20v-40"/><path fill="#f4f4f4ff" d="m60,60h20v20h-20v-20"/><path fill="#ef7d57ff" d="m0,80h20v40h-20v-40"/><path fill="#1a1c2cff" d="m220,80h20v20h-20v-20"/><path fill="#94b0c2ff" d="m360,80h20v40h-20v-40"/><path fill="#1a1c2cff" d="m200,100h20v40h-20v-40"/><path fill="#1a1c2cff" d="m240,100h20v40h-20v-40"/><path fill="#ffcd75ff" d="m0,120h20v40h-20v-40"/><path fill="#1a1c2cff" d="m300,120h20v20h-20v-20"/><path fill="#566c86ff" d="m360,120h20v40h-20v-40"/><path fill="#94b0c2ff" d="m340,140h20v20h-20v-20"/><path fill="#a7f070ff" d="m0,160h40v20h-40v-20"/><path fill="#38b764ff" d="m40,160h40v20h-40v-20"/><path fill="#257179ff" d="m80,160h40v20h-40v-20"/><path fill="#29366fff" d="m120,160h40v20h-40v-20"/><path fill="#3b5dc9ff" d="m160,160h40v20h-40v-20"/><path fill="#41a6f6ff" d="m200,160h40v20h-40v-20"/><path fill="#73eff7ff" d="m240,160h40v20h-40v-20"/><path fill="#94b0c2ff" d="m280,160h40v20h-40v-20"/><path fill="#566c86ff" d="m320,160h40v20h-40v-20"/><path fill="#333c57ff" d="m360,160h20v20h-20v-20"/><g style="fill:none;stroke-width:1;stroke:black"><path d="m0,0h40v20h-20v20h-20v-40z"/><path d="m40,0h40v20h-40v-20z"/><path d="m80,0h40v20h-40v-20z"/><path d="m120,0h40v20h-40v-20z"/><path d="m160,0h40v20h-40v-20z"/><path d="m200,0h40v20h-40v-20z"/><path d="m240,0h40v20h-40v-20z"/><path d="m280,0h40v20h-40v-20z"/><path d="m320,0h40v20h-40v-20z"/><path d="m360,0h20v40h-20v-40z"/><path d="m20,20h340v120h-20v20h-320v-140z"/><path d="m0,40h20v40h-20v-40z"/><path d="m40,40h60v60h-40v40h-20v-100z"/><path d="m120,40h60v20h-20v60h20v20h-60v-20h20v-60h-20v-20z"/><path d="m200,40h20v40h-20v-40z"/><path d="m240,40h20v40h-20v-40z"/><path d="m280,40h20v80h-20v-80z"/><path d="m320,40h20v80h-20v-80z"/><path d="m360,40h20v40h-20v-40z"/><path d="m60,60h20v20h-20v-20z"/><path d="m0,80h20v40h-20v-40z"/><path d="m220,80h20v20h-20v-20z"/><path d="m360,80h20v40h-20v-40z"/><path d="m200,100h20v40h-20v-40z"/><path d="m240,100h20v40h-20v-40z"/><path d="m0,120h20v40h-20v-40z"/><path d="m300,120h20v20h-20v-20z"/><path d="m360,120h20v40h-20v-40z"/><path d="m340,140h20v20h-20v-20z"/><path d="m0,160h40v20h-40v-20z"/><path d="m40,160h40v20h-40v-20z"/><path d="m80,160h40v20h-40v-20z"/><path d="m120,160h40v20h-40v-20z"/><path d="m160,160h40v20h-40v-20z"/><path d="m200,160h40v20h-40v-20z"/><path d="m240,160h40v20h-40v-20z"/><path d="m280,160h40v20h-40v-20z"/><path d="m320,160h40v20h-40v-20z"/><path d="m360,160h20v20h-20v-20z"/><path d="m0,0h380v180h-380z" stroke-width="2"/></g></svg>