<svg width="380" height="180" xmlns="http://www.w3.org/2000/svg" shape-rendering="crispEdges"><path fill="#b13e53" d="m40,0h40v20h-40v-20m-40,40h20v40h-20v-40"/><path fill="#257179" d="m240,0h40v20h-40v-20m-160,160h40v20h-40v-20"/><path fill="#29366f" d="m280,0h40v20h-40v-20m-160,160h40v20h-40v-20"/><path fill="#f4f4f4" d="m20,20h340v120h-20v20h-320v-140m20,120h20v-40h40v-60h-60v100m80,-80h20v60h-20v20h60v-20h-20v-60h20v-20h-60v20m80,20h20v20h-20v40h20v-40h20v40h20v-40h-20v-20h20v-40h-20v40h-20v-40h-20v40m80,40h20v20h20v-20h20v-80h-20v80h-20v-80h-20v80m-220,-60h20v20h-20v-20"/><path fill="#1a1c2c" d="m40,40h60v60h-40v40h-20v-100m20,40h20v-20h-20v20m60,-40h60v20h-20v60h20v20h-60v-20h20v-60h-20v-20m80,0h20v40h-20v-40m40,0h20v40h-20v-40m40,0h20v80h-20v-80m40,0h20v80h-20v-80m-100,40h20v20h-20v-20m-20,20h20v40h-20v-40m40,0h20v40h-20v-40m60,20h20v20h-20v-20"/><path fill="#94b0c2" d="m360,80h20v40h-20v-40m-20,60h20v20h-20v-20m-60,20h40v20h-40v-20"/><path fill="#566c86" d="m360,120h20v40h-20v-40m-40,40h40v20h-40v-20"/><path fill="#333c57" d="m360,160h20v20h-20v-20"/><path fill="#a7f070" d="m160,0h40v20h-40v-20m-160,160h40v20h-40v-20"/><path fill="#38b764" d="m200,0h40v20h-40v-20m-160,160h40v20h-40v-20"/><path fill="#3b5dc9" d="m320,0h40v20h-40v-20m-160,160h40v20h-40v-20"/><path fill="#ffcd75" d="m120,0h40v20h-40v-20m-120,120h20v40h-20v-40"/><path fill="#41a6f6" d="m360,0h20v40h-20v-40m-160,160h40v20h-40v-20"/><path fill="#73eff7" d="m360,40h20v40h-20v-40m-120,120h40v20h-40v-20"/><path fill="#5d275d" d="m0,0h40v20h-20v20h-20v-40"/><path fill="#ef7d57" d="m80,0h40v20h-40v-20m-80,80h20v40h-20v-40"/><g style="fill:none;stroke-width:1;stroke:black"><path d="m40,0h40v20h-40v-20m-40,40h20v40h-20v-40"/><path d="m200,0h40v20h-40v-20m-160,160h40v20h-40v-20"/><path d="m320,0h40v20h-40v-20m-160,160h40v20h-40v-20"/><path d="m360,40h20v40h-20v-40m-120,120h40v20h-40v-20"/><path d="m0,0h40v20h-20v20h-20v-40"/><path d="m240,0h40v20h-40v-20m-160,160h40v20h-40v-20"/><path d="m360,0h20v40h-20v-40m-160,160h40v20h-40v-20"/><path d="m80,0h40v20h-40v-20m-80,80h20v40h-20v-40"/><path d="m120,0h40v20h-40v-20m-120,120h20v40h-20v-40"/><path d="m160,0h40v20h-40v-20m-160,160h40v20h-40v-20"/><path d="m40,40h60v60h-40v40h-20v-100m20,40h20v-20h-20v20m60,-40h60v20h-20v60h20v20h-60v-20h20v-60h-20v-20m80,0h20v40h-20v-40m40,0h20v40h-20v-40m40,0h20v80h-20v-80m40,0h20v80h-20v-80m-100,40h20v20h-20v-20m-20,20h20v40h-20v-40m40,0h20v40h-20v-40m60,20h20v20h-20v-20"/><path d="m360,120h20v40h-20v-40m-40,40h40v20h-40v-20"/><path d="m360,160h20v20h-20v-20"/><path d="m280,0h40v20h-40v-20m-160,160h40v20h-40v-20"/><path d="m20,20h340v120h-20v20h-320v-140m20,120h20v-40h40v-60h-60v100m80,-80h20v60h-20v20h60v-20h-20v-60h20v-20h-60v20m80,20h20v20h-20v40h20v-40h20v40h20v-40h-20v-20h20v-40h-20v40h-20v-40h-20v40m80,40h20v20h20v-20h20v-80h-20v80h-20v-80h-20v80m-220,-60h20v20h-20v-20"/><path d="m360,80h20v40h-20v-40m-20,60h20v20h-20v-20m-60,20h40v20h-40v-20"/><path d="m0,0h380v180h-380z" stroke-width="2"/></g></svg>