<svg width="380" height="180" xmlns="http://www.w3.org/2000/svg" shape-rendering="crispEdges"><path fill="#5d275d" d="m0,0h20v20h-20m20,-20h20v20h-20m-20,0h20v20h-20"/><path fill="#a7f070" d="m160,0h20v20h-20m20,-20h20v20h-20m-180,140h20v20h-20m20,-20h20v20h-20"/><path fill="#257179" d="m240,0h20v20h-20m20,-20h20v20h-20m-180,140h20v20h-20m20,-20h20v20h-20"/><path fill="#41a6f6" d="m360,0h20v20h-20m0,0h20v20h-20m-160,120h20v20h-20m20,-20h20v20h-20"/><path fill="#f4f4f4" d="m20,20h20v20h-20m20,-20h20v20h-20m20,-20h20v20h-20m20,-20h20v20h-20m20,-20h20v20h-20m20,-20h20v20h-20m20,-20h20v20h-20m20,-20h20v20h-20m20,-20h20v20h-20m20,-20h20v20h-20m20,-20h20v20h-20m20,-20h20v20h-20m20,-20h20v20h-20m20,-20h20v20h-20m20,-20h20v20h-20m20,-20h20v20h-20m20,-20h20v20h-20m-320,0h20v20h-20m80,-20h20v20h-20m80,-20h20v20h-20m40,-20h20v20h-20m40,-20h20v20h-20m40,-20h20v20h-20m40,-20h20v20h-20m-320,0h20v20h-20m40,-20h20v20h-20m40,-20h20v20h-20m20,-20h20v20h-20m40,-20h20v20h-20m20,-20h20v20h-20m40,-20h20v20h-20m40,-20h20v20h-20m40,-20h20v20h-20m40,-20h20v20h-20m-320,0h20v20h-20m80,-20h20v20h-20m20,-20h20v20h-20m40,-20h20v20h-20m20,-20h20v20h-20m20,-20h20v20h-20m40,-20h20v20h-20m20,-20h20v20h-20m40,-20h20v20h-20m40,-20h20v20h-20m-320,0h20v20h-20m40,-20h20v20h-20m20,-20h20v20h-20m20,-20h20v20h-20m20,-20h20v20h-20m40,-20h20v20h-20m20,-20h20v20h-20m40,-20h20v20h-20m40,-20h20v20h-20m40,-20h20v20h-20m40,-20h20v20h-20m-320,0h20v20h-20m40,-20h20v20h-20m20,-20h20v20h-20m20,-20h20v20h-20m80,-20h20v20h-20m40,-20h20v20h-20m40,-20h20v20h-20m20,-20h20v20h-20m40,-20h20v20h-20m20,-20h20v20h-20m-320,0h20v20h-20m20,-20h20v20h-20m20,-20h20v20h-20m20,-20h20v20h-20m20,-20h20v20h-20m20,-20h20v20h-20m20,-20h20v20h-20m20,-20h20v20h-20m20,-20h20v20h-20m20,-20h20v20h-20m20,-20h20v20h-20m20,-20h20v20h-20m20,-20h20v20h-20m20,-20h20v20h-20m20,-20h20v20h-20m20,-20h20v20h-20"/><path fill="#566c86" d="m360,120h20v20h-20m0,0h20v20h-20m-40,0h20v20h-20m20,-20h20v20h-20"/><path fill="#38b764" d="m200,0h20v20h-20m20,-20h20v20h-20m-180,140h20v20h-20m20,-20h20v20h-20"/><path fill="#29366f" d="m280,0h20v20h-20m20,-20h20v20h-20m-180,140h20v20h-20m20,-20h20v20h-20"/><path fill="#3b5dc9" d="m320,0h20v20h-20m20,-20h20v20h-20m-180,140h20v20h-20m20,-20h20v20h-20"/><path fill="#1a1c2c" d="m40,40h20v20h-20m20,-20h20v20h-20m20,-20h20v20h-20m40,-20h20v20h-20m20,-20h20v20h-20m20,-20h20v20h-20m40,-20h20v20h-20m40,-20h20v20h-20m40,-20h20v20h-20m40,-20h20v20h-20m-280,0h20v20h-20m40,-20h20v20h-20m60,-20h20v20h-20m60,-20h20v20h-20m40,-20h20v20h-20m40,-20h20v20h-20m40,-20h20v20h-20m-280,0h20v20h-20m20,-20h20v20h-20m20,-20h20v20h-20m60,-20h20v20h-20m80,-20h20v20h-20m60,-20h20v20h-20m40,-20h20v20h-20m-280,0h20v20h-20m100,-20h20v20h-20m60,-20h20v20h-20m40,-20h20v20h-20m40,-20h20v20h-20m40,-20h20v20h-20m-280,0h20v20h-20m80,-20h20v20h-20m20,-20h20v20h-20m20,-20h20v20h-20m40,-20h20v20h-20m40,-20h20v20h-20m60,-20h20v20h-20"/><path fill="#333c57" d="m360,160h20v20h-20"/><path fill="#b13e53" d="m40,0h20v20h-20m20,-20h20v20h-20m-60,20h20v20h-20m0,0h20v20h-20"/><path fill="#ffcd75" d="m120,0h20v20h-20m20,-20h20v20h-20m-140,100h20v20h-20m0,0h20v20h-20"/><path fill="#73eff7" d="m360,40h20v20h-20m0,0h20v20h-20m-120,80h20v20h-20m20,-20h20v20h-20"/><path fill="#94b0c2" d="m360,80h20v20h-20m0,0h20v20h-20m-20,20h20v20h-20m-60,0h20v20h-20m20,-20h20v20h-20"/><path fill="#ef7d57" d="m80,0h20v20h-20m20,-20h20v20h-20m-100,60h20v20h-20m0,0h20v20h-20"/><g style="fill:none;stroke-width:1;stroke:black"><path d="m200,0h20v20h-20m20,-20h20v20h-20m-180,140h20v20h-20m20,-20h20v20h-20"/><path d="m280,0h20v20h-20m20,-20h20v20h-20m-180,140h20v20h-20m20,-20h20v20h-20"/><path d="m360,40h20v20h-20m0,0h20v20h-20m-120,80h20v20h-20m20,-20h20v20h-20"/><path d="m160,0h20v20h-20m20,-20h20v20h-20m-180,140h20v20h-20m20,-20h20v20h-20"/><path d="m40,40h20v20h-20m20,-20h20v20h-20m20,-20h20v20h-20m40,-20h20v20h-20m20,-20h20v20h-20m20,-20h20v20h-20m40,-20h20v20h-20m40,-20h20v20h-20m40,-20h20v20h-20m40,-20h20v20h-20m-280,0h20v20h-20m40,-20h20v20h-20m60,-20h20v20h-20m60,-20h20v20h-20m40,-20h20v20h-20m40,-20h20v20h-20m40,-20h20v20h-20m-280,0h20v20h-20m20,-20h20v20h-20m20,-20h20v20h-20m60,-20h20v20h-20m80,-20h20v20h-20m60,-20h20v20h-20m40,-20h20v20h-20m-280,0h20v20h-20m100,-20h20v20h-20m60,-20h20v20h-20m40,-20h20v20h-20m40,-20h20v20h-20m40,-20h20v20h-20m-280,0h20v20h-20m80,-20h20v20h-20m20,-20h20v20h-20m20,-20h20v20h-20m40,-20h20v20h-20m40,-20h20v20h-20m60,-20h20v20h-20"/><path d="m360,120h20v20h-20m0,0h20v20h-20m-40,0h20v20h-20m20,-20h20v20h-20"/><path d="m240,0h20v20h-20m20,-20h20v20h-20m-180,140h20v20h-20m20,-20h20v20h-20"/><path d="m320,0h20v20h-20m20,-20h20v20h-20m-180,140h20v20h-20m20,-20h20v20h-20"/><path d="m20,20h20v20h-20m20,-20h20v20h-20m20,-20h20v20h-20m20,-20h20v20h-20m20,-20h20v20h-20m20,-20h20v20h-20m20,-20h20v20h-20m20,-20h20v20h-20m20,-20h20v20h-20m20,-20h20v20h-20m20,-20h20v20h-20m20,-20h20v20h-20m20,-20h20v20h-20m20,-20h20v20h-20m20,-20h20v20h-20m20,-20h20v20h-20m20,-20h20v20h-20m-320,0h20v20h-20m80,-20h20v20h-20m80,-20h20v20h-20m40,-20h20v20h-20m40,-20h20v20h-20m40,-20h20v20h-20m40,-20h20v20h-20m-320,0h20v20h-20m40,-20h20v20h-20m40,-20h20v20h-20m20,-20h20v20h-20m40,-20h20v20h-20m20,-20h20v20h-20m40,-20h20v20h-20m40,-20h20v20h-20m40,-20h20v20h-20m40,-20h20v20h-20m-320,0h20v20h-20m80,-20h20v20h-20m20,-20h20v20h-20m40,-20h20v20h-20m20,-20h20v20h-20m20,-20h20v20h-20m40,-20h20v20h-20m20,-20h20v20h-20m40,-20h20v20h-20m40,-20h20v20h-20m-320,0h20v20h-20m40,-20h20v20h-20m20,-20h20v20h-20m20,-20h20v20h-20m20,-20h20v20h-20m40,-20h20v20h-20m20,-20h20v20h-20m40,-20h20v20h-20m40,-20h20v20h-20m40,-20h20v20h-20m40,-20h20v20h-20m-320,0h20v20h-20m40,-20h20v20h-20m20,-20h20v20h-20m20,-20h20v20h-20m80,-20h20v20h-20m40,-20h20v20h-20m40,-20h20v20h-20m20,-20h20v20h-20m40,-20h20v20h-20m20,-20h20v20h-20m-320,0h20v20h-20m20,-20h20v20h-20m20,-20h20v20h-20m20,-20h20v20h-20m20,-20h20v20h-20m20,-20h20v20h-20m20,-20h20v20h-20m20,-20h20v20h-20m20,-20h20v20h-20m20,-20h20v20h-20m20,-20h20v20h-20m20,-20h20v20h-20m20,-20h20v20h-20m20,-20h20v20h-20m20,-20h20v20h-20m20,-20h20v20h-20"/><path d="m360,80h20v20h-20m0,0h20v20h-20m-20,20h20v20h-20m-60,0h20v20h-20m20,-20h20v20h-20"/><path d="m360,0h20v20h-20m0,0h20v20h-20m-160,120h20v20h-20m20,-20h20v20h-20"/><path d="m360,160h20v20h-20"/><path d="m0,0h20v20h-20m20,-20h20v20h-20m-20,0h20v20h-20"/><path d="m40,0h20v20h-20m20,-20h20v20h-20m-60,20h20v20h-20m0,0h20v20h-20"/><path d="m80,0h20v20h-20m20,-20h20v20h-20m-100,60h20v20h-20m0,0h20v20h-20"/><path d="m120,0h20v20h-20m20,-20h20v20h-20m-140,100h20v20h-20m0,0h20v20h-20"/><path d="m0,0h380v180h-380z" stroke-width="2"/></g></svg>