<svg width="380" height="180" xmlns="http://www.w3.org/2000/svg" shape-rendering="crispEdges"><g fill="#1a1c2cff"><path d="m220,80h20v20h-20"/><path d="m300,120h20v20h-20"/><path d="m60,80h20v20h-20"/><path d="m120,120h20v20h-20"/><path d="m160,120h20v20h-20"/><path d="m40,40h60v20h-60"/><path d="m120,40h60v20h-60"/><path d="m200,40h20v40h-20"/><path d="m240,40h20v40h-20"/><path d="m240,100h20v40h-20"/><path d="m80,60h20v40h-20"/><path d="m200,100h20v40h-20"/><path d="m40,60h20v80h-20"/><path d="m140,60h20v80h-20"/><path d="m280,40h20v80h-20"/><path d="m320,40h20v80h-20"/></g><g fill="#257179ff"><path d="m80,160h40v20h-40"/><path d="m240,0h40v20h-40"/></g><g fill="#29366fff"><path d="m280,0h40v20h-40"/><path d="m120,160h40v20h-40"/></g><g fill="#333c57ff"><path d="m360,160h20v20h-20"/></g><g fill="#38b764ff"><path d="m40,160h40v20h-40"/><path d="m200,0h40v20h-40"/></g><g fill="#3b5dc9ff"><path d="m160,160h40v20h-40"/><path d="m320,0h40v20h-40"/></g><g fill="#41a6f6ff"><path d="m200,160h40v20h-40"/><path d="m360,0h20v40h-20"/></g><g fill="#566c86ff"><path d="m320,160h40v20h-40"/><path d="m360,120h20v40h-20"/></g><g fill="#5d275dff"><path d="m0,20h20v20h-20"/><path d="m0,0h40v20h-40"/></g><g fill="#73eff7ff"><path d="m240,160h40v20h-40"/><path d="m360,40h20v40h-20"/></g><g fill="#94b0c2ff"><path d="m340,140h20v20h-20"/><path d="m280,160h40v20h-40"/><path d="m360,80h20v40h-20"/></g><g fill="#a7f070ff"><path d="m0,160h40v20h-40"/><path d="m160,0h40v20h-40"/></g><g fill="#b13e53ff"><path d="m40,0h40v20h-40"/><path d="m0,40h20v40h-20"/></g><g fill="#ef7d57ff"><path d="m80,0h40v20h-40"/><path d="m0,80h20v40h-20"/></g><g fill="#f4f4f4ff"><path d="m60,60h20v20h-20"/><path d="m240,80h20v20h-20"/><path d="m300,140h20v20h-20"/><path d="m200,80h20v20h-20"/><path d="m240,140h20v20h-20"/><path d="m200,140h20v20h-20"/><path d="m40,140h20v20h-20"/><path d="m120,140h60v20h-60"/><path d="m20,20h340v20h-340"/><path d="m320,120h20v40h-20"/><path d="m280,120h20v40h-20"/><path d="m220,40h20v40h-20"/><path d="m160,60h20v60h-20"/><path d="m220,100h20v60h-20"/><path d="m120,60h20v60h-20"/><path d="m60,100h40v60h-40"/><path d="m300,40h20v80h-20"/><path d="m340,40h20v100h-20"/><path d="m260,40h20v120h-20"/><path d="m180,40h20v120h-20"/><path d="m100,40h20v120h-20"/><path d="m20,40h20v120h-20"/></g><g fill="#ffcd75ff"><path d="m120,0h40v20h-40"/><path d="m0,120h20v40h-20"/></g><g style="fill:none;stroke-width:1;stroke:black"><path d="m220,80h20v20h-20z"/><path d="m300,120h20v20h-20z"/><path d="m60,80h20v20h-20z"/><path d="m120,120h20v20h-20z"/><path d="m160,120h20v20h-20z"/><path d="m40,40h60v20h-60z"/><path d="m120,40h60v20h-60z"/><path d="m200,40h20v40h-20z"/><path d="m240,40h20v40h-20z"/><path d="m240,100h20v40h-20z"/><path d="m80,60h20v40h-20z"/><path d="m200,100h20v40h-20z"/><path d="m40,60h20v80h-20z"/><path d="m140,60h20v80h-20z"/><path d="m280,40h20v80h-20z"/><path d="m320,40h20v80h-20z"/><path d="m80,160h40v20h-40z"/><path d="m240,0h40v20h-40z"/><path d="m280,0h40v20h-40z"/><path d="m120,160h40v20h-40z"/><path d="m360,160h20v20h-20z"/><path d="m40,160h40v20h-40z"/><path d="m200,0h40v20h-40z"/><path d="m160,160h40v20h-40z"/><path d="m320,0h40v20h-40z"/><path d="m200,160h40v20h-40z"/><path d="m360,0h20v40h-20z"/><path d="m320,160h40v20h-40z"/><path d="m360,120h20v40h-20z"/><path d="m0,20h20v20h-20z"/><path d="m0,0h40v20h-40z"/><path d="m240,160h40v20h-40z"/><path d="m360,40h20v40h-20z"/><path d="m340,140h20v20h-20z"/><path d="m280,160h40v20h-40z"/><path d="m360,80h20v40h-20z"/><path d="m0,160h40v20h-40z"/><path d="m160,0h40v20h-40z"/><path d="m40,0h40v20h-40z"/><path d="m0,40h20v40h-20z"/><path d="m80,0h40v20h-40z"/><path d="m0,80h20v40h-20z"/><path d="m60,60h20v20h-20z"/><path d="m240,80h20v20h-20z"/><path d="m300,140h20v20h-20z"/><path d="m200,80h20v20h-20z"/><path d="m240,140h20v20h-20z"/><path d="m200,140h20v20h-20z"/><path d="m40,140h20v20h-20z"/><path d="m120,140h60v20h-60z"/><path d="m20,20h340v20h-340z"/><path d="m320,120h20v40h-20z"/><path d="m280,120h20v40h-20z"/><path d="m220,40h20v40h-20z"/><path d="m160,60h20v60h-20z"/><path d="m220,100h20v60h-20z"/><path d="m120,60h20v60h-20z"/><path d="m60,100h40v60h-40z"/><path d="m300,40h20v80h-20z"/><path d="m340,40h20v100h-20z"/><path d="m260,40h20v120h-20z"/><path d="m180,40h20v120h-20z"/><path d="m100,40h20v120h-20z"/><path d="m20,40h20v120h-20z"/><path d="m120,0h40v20h-40z"/><path d="m0,120h20v40h-20z"/></g><path d="m0,0h380v180h-380nz" style="fill:none;stroke-width:1;stroke:black"/></svg>