<svg width="344" height="136" xmlns="http://www.w3.org/2000/svg" shape-rendering="crispEdges"><g transform="scale(8)" style="stroke-width:0.125;stroke:#ff0000"><path fill="#000000" d="M0 3 h1 v1 h-1 z M1 3 h1 v1 h-1 z M2 3 h1 v1 h-1 z M3 3 h1 v1 h-1 z M4 3 h1 v1 h-1 z M5 3 h1 v1 h-1 z M6 3 h1 v1 h-1 z M7 3 h1 v1 h-1 z M8 3 h1 v1 h-1 z M9 3 h1 v1 h-1 z M10 3 h1 v1 h-1 z M11 3 h1 v1 h-1 z M12 3 h1 v1 h-1 z M13 3 h1 v1 h-1 z M14 3 h1 v1 h-1 z M15 3 h1 v1 h-1 z M16 3 h1 v1 h-1 z M17 3 h1 v1 h-1 z M18 3 h1 v1 h-1 z M19 3 h1 v1 h-1 z M20 3 h1 v1 h-1 z M21 3 h1 v1 h-1 z M22 3 h1 v1 h-1 z M23 3 h1 v1 h-1 z M24 3 h1 v1 h-1 z M25 3 h1 v1 h-1 z M26 3 h1 v1 h-1 z M27 3 h1 v1 h-1 z M28 3 h1 v1 h-1 z M29 3 h1 v1 h-1 z M30 3 h1 v1 h-1 z M31 3 h1 v1 h-1 z M32 3 h1 v1 h-1 z M33 3 h1 v1 h-1 z M34 3 h1 v1 h-1 z M35 3 h1 v1 h-1 z M36 3 h1 v1 h-1 z M37 3 h1 v1 h-1 z M38 3 h1 v1 h-1 z M39 3 h1 v1 h-1 z M40 3 h1 v1 h-1 z M41 3 h1 v1 h-1 z M42 3 h1 v1 h-1 z M0 7 h1 v1 h-1 z M1 7 h1 v1 h-1 z M2 7 h1 v1 h-1 z M3 7 h1 v1 h-1 z M4 7 h1 v1 h-1 z M5 7 h1 v1 h-1 z M8 7 h1 v1 h-1 z M9 7 h1 v1 h-1 z M10 7 h1 v1 h-1 z M11 7 h1 v1 h-1 z M13 7 h1 v1 h-1 z M14 7 h1 v1 h-1 z M15 7 h1 v1 h-1 z M16 7 h1 v1 h-1 z M17 7 h1 v1 h-1 z M18 7 h1 v1 h-1 z M19 7 h1 v1 h-1 z M20 7 h1 v1 h-1 z M21 7 h1 v1 h-1 z M22 7 h1 v1 h-1 z M23 7 h1 v1 h-1 z M24 7 h1 v1 h-1 z M25 7 h1 v1 h-1 z M26 7 h1 v1 h-1 z M27 7 h1 v1 h-1 z M28 7 h1 v1 h-1 z M29 7 h1 v1 h-1 z M30 7 h1 v1 h-1 z M31 7 h1 v1 h-1 z M32 7 h1 v1 h-1 z M33 7 h1 v1 h-1 z M34 7 h1 v1 h-1 z M35 7 h1 v1 h-1 z M36 7 h1 v1 h-1 z M37 7 h1 v1 h-1 z M38 7 h1 v1 h-1 z M39 7 h1 v1 h-1 z M40 7 h1 v1 h-1 z M41 7 h1 v1 h-1 z M42 7 h1 v1 h-1 z M0 13 h1 v1 h-1 z M1 13 h1 v1 h-1 z M2 13 h1 v1 h-1 z M3 13 h1 v1 h-1 z M4 13 h1 v1 h-1 z M5 13 h1 v1 h-1 z M6 13 h1 v1 h-1 z M7 13 h1 v1 h-1 z M8 13 h1 v1 h-1 z M9 13 h1 v1 h-1 z M10 13 h1 v1 h-1 z M11 13 h1 v1 h-1 z M12 13 h1 v1 h-1 z M13 13 h1 v1 h-1 z M14 13 h1 v1 h-1 z M15 13 h1 v1 h-1 z M16 13 h1 v1 h-1 z M17 13 h1 v1 h-1 z M18 13 h1 v1 h-1 z M19 13 h1 v1 h-1 z M20 13 h1 v1 h-1 z M21 13 h1 v1 h-1 z M22 13 h1 v1 h-1 z M23 13 h1 v1 h-1 z M24 13 h1 v1 h-1 z M25 13 h1 v1 h-1 z M26 13 h1 v1 h-1 z M27 13 h1 v1 h-1 z M28 13 h1 v1 h-1 z M29 13 h1 v1 h-1 z M30 13 h1 v1 h-1 z M31 13 h1 v1 h-1 z M32 13 h1 v1 h-1 z M33 13 h1 v1 h-1 z M34 13 h1 v1 h-1 z M35 13 h1 v1 h-1 z M36 13 h1 v1 h-1 z M37 13 h1 v1 h-1 z M38 13 h1 v1 h-1 z M39 13 h1 v1 h-1 z M40 13 h1 v1 h-1 z M41 13 h1 v1 h-1 z M42 13 h1 v1 h-1 z M0 2 h1 v1 h-1 z M1 2 h1 v1 h-1 z M2 2 h1 v1 h-1 z M3 2 h1 v1 h-1 z M4 2 h1 v1 h-1 z M5 2 h1 v1 h-1 z M6 2 h1 v1 h-1 z M7 2 h1 v1 h-1 z M8 2 h1 v1 h-1 z M9 2 h1 v1 h-1 z M10 2 h1 v1 h-1 z M11 2 h1 v1 h-1 z M12 2 h1 v1 h-1 z M13 2 h1 v1 h-1 z M14 2 h1 v1 h-1 z M15 2 h1 v1 h-1 z M16 2 h1 v1 h-1 z M17 2 h1 v1 h-1 z M18 2 h1 v1 h-1 z M19 2 h1 v1 h-1 z M20 2 h1 v1 h-1 z M21 2 h1 v1 h-1 z M22 2 h1 v1 h-1 z M23 2 h1 v1 h-1 z M24 2 h1 v1 h-1 z M25 2 h1 v1 h-1 z M26 2 h1 v1 h-1 z M27 2 h1 v1 h-1 z M28 2 h1 v1 h-1 z M29 2 h1 v1 h-1 z M30 2 h1 v1 h-1 z M31 2 h1 v1 h-1 z M32 2 h1 v1 h-1 z M33 2 h1 v1 h-1 z M34 2 h1 v1 h-1 z M35 2 h1 v1 h-1 z M36 2 h1 v1 h-1 z M37 2 h1 v1 h-1 z M38 2 h1 v1 h-1 z M39 2 h1 v1 h-1 z M40 2 h1 v1 h-1 z M41 2 h1 v1 h-1 z M42 2 h1 v1 h-1 z M0 1 h1 v1 h-1 z M1 1 h1 v1 h-1 z M2 1 h1 v1 h-1 z M3 1 h1 v1 h-1 z M4 1 h1 v1 h-1 z M5 1 h1 v1 h-1 z M6 1 h1 v1 h-1 z M7 1 h1 v1 h-1 z M8 1 h1 v1 h-1 z M9 1 h1 v1 h-1 z M10 1 h1 v1 h-1 z M11 1 h1 v1 h-1 z M12 1 h1 v1 h-1 z M13 1 h1 v1 h-1 z M14 1 h1 v1 h-1 z M15 1 h1 v1 h-1 z M16 1 h1 v1 h-1 z M17 1 h1 v1 h-1 z M18 1 h1 v1 h-1 z M19 1 h1 v1 h-1 z M20 1 h1 v1 h-1 z M21 1 h1 v1 h-1 z M22 1 h1 v1 h-1 z M23 1 h1 v1 h-1 z M24 1 h1 v1 h-1 z M25 1 h1 v1 h-1 z M26 1 h1 v1 h-1 z M27 1 h1 v1 h-1 z M28 1 h1 v1 h-1 z M29 1 h1 v1 h-1 z M30 1 h1 v1 h-1 z M31 1 h1 v1 h-1 z M32 1 h1 v1 h-1 z M33 1 h1 v1 h-1 z M34 1 h1 v1 h-1 z M35 1 h1 v1 h-1 z M36 1 h1 v1 h-1 z M37 1 h1 v1 h-1 z M38 1 h1 v1 h-1 z M39 1 h1 v1 h-1 z M40 1 h1 v1 h-1 z M41 1 h1 v1 h-1 z M42 1 h1 v1 h-1 z M0 15 h1 v1 h-1 z M1 15 h1 v1 h-1 z M2 15 h1 v1 h-1 z M3 15 h1 v1 h-1 z M4 15 h1 v1 h-1 z M5 15 h1 v1 h-1 z M6 15 h1 v1 h-1 z M7 15 h1 v1 h-1 z M8 15 h1 v1 h-1 z M9 15 h1 v1 h-1 z M10 15 h1 v1 h-1 z M11 15 h1 v1 h-1 z M12 15 h1 v1 h-1 z M13 15 h1 v1 h-1 z M14 15 h1 v1 h-1 z M15 15 h1 v1 h-1 z M16 15 h1 v1 h-1 z M17 15 h1 v1 h-1 z M18 15 h1 v1 h-1 z M19 15 h1 v1 h-1 z M20 15 h1 v1 h-1 z M21 15 h1 v1 h-1 z M22 15 h1 v1 h-1 z M23 15 h1 v1 h-1 z M24 15 h1 v1 h-1 z M25 15 h1 v1 h-1 z M26 15 h1 v1 h-1 z M27 15 h1 v1 h-1 z M28 15 h1 v1 h-1 z M29 15 h1 v1 h-1 z M30 15 h1 v1 h-1 z M31 15 h1 v1 h-1 z M32 15 h1 v1 h-1 z M33 15 h1 v1 h-1 z M34 15 h1 v1 h-1 z M35 15 h1 v1 h-1 z M36 15 h1 v1 h-1 z M37 15 h1 v1 h-1 z M38 15 h1 v1 h-1 z M39 15 h1 v1 h-1 z M40 15 h1 v1 h-1 z M41 15 h1 v1 h-1 z M42 15 h1 v1 h-1 z M0 4 h1 v1 h-1 z M1 4 h1 v1 h-1 z M2 4 h1 v1 h-1 z M3 4 h1 v1 h-1 z M4 4 h1 v1 h-1 z M6 4 h1 v1 h-1 z M7 4 h1 v1 h-1 z M8 4 h1 v1 h-1 z M9 4 h1 v1 h-1 z M10 4 h1 v1 h-1 z M11 4 h1 v1 h-1 z M13 4 h1 v1 h-1 z M14 4 h1 v1 h-1 z M15 4 h1 v1 h-1 z M16 4 h1 v1 h-1 z M17 4 h1 v1 h-1 z M18 4 h1 v1 h-1 z M19 4 h1 v1 h-1 z M20 4 h1 v1 h-1 z M21 4 h1 v1 h-1 z M22 4 h1 v1 h-1 z M23 4 h1 v1 h-1 z M24 4 h1 v1 h-1 z M25 4 h1 v1 h-1 z M26 4 h1 v1 h-1 z M27 4 h1 v1 h-1 z M28 4 h1 v1 h-1 z M29 4 h1 v1 h-1 z M30 4 h1 v1 h-1 z M31 4 h1 v1 h-1 z M32 4 h1 v1 h-1 z M33 4 h1 v1 h-1 z M34 4 h1 v1 h-1 z M35 4 h1 v1 h-1 z M36 4 h1 v1 h-1 z M37 4 h1 v1 h-1 z M38 4 h1 v1 h-1 z M39 4 h1 v1 h-1 z M40 4 h1 v1 h-1 z M41 4 h1 v1 h-1 z M42 4 h1 v1 h-1 z M0 5 h1 v1 h-1 z M1 5 h1 v1 h-1 z M2 5 h1 v1 h-1 z M3 5 h1 v1 h-1 z M4 5 h1 v1 h-1 z M5 5 h1 v1 h-1 z M7 5 h1 v1 h-1 z M8 5 h1 v1 h-1 z M9 5 h1 v1 h-1 z M10 5 h1 v1 h-1 z M11 5 h1 v1 h-1 z M13 5 h1 v1 h-1 z M14 5 h1 v1 h-1 z M15 5 h1 v1 h-1 z M16 5 h1 v1 h-1 z M17 5 h1 v1 h-1 z M18 5 h1 v1 h-1 z M19 5 h1 v1 h-1 z M20 5 h1 v1 h-1 z M21 5 h1 v1 h-1 z M22 5 h1 v1 h-1 z M23 5 h1 v1 h-1 z M24 5 h1 v1 h-1 z M25 5 h1 v1 h-1 z M26 5 h1 v1 h-1 z M27 5 h1 v1 h-1 z M28 5 h1 v1 h-1 z M29 5 h1 v1 h-1 z M30 5 h1 v1 h-1 z M31 5 h1 v1 h-1 z M32 5 h1 v1 h-1 z M33 5 h1 v1 h-1 z M34 5 h1 v1 h-1 z M35 5 h1 v1 h-1 z M36 5 h1 v1 h-1 z M37 5 h1 v1 h-1 z M38 5 h1 v1 h-1 z M39 5 h1 v1 h-1 z M40 5 h1 v1 h-1 z M41 5 h1 v1 h-1 z M42 5 h1 v1 h-1 z M0 6 h1 v1 h-1 z M1 6 h1 v1 h-1 z M2 6 h1 v1 h-1 z M3 6 h1 v1 h-1 z M4 6 h1 v1 h-1 z M5 6 h1 v1 h-1 z M6 6 h1 v1 h-1 z M7 6 h1 v1 h-1 z M8 6 h1 v1 h-1 z M9 6 h1 v1 h-1 z M10 6 h1 v1 h-1 z M11 6 h1 v1 h-1 z M13 6 h1 v1 h-1 z M14 6 h1 v1 h-1 z M15 6 h1 v1 h-1 z M16 6 h1 v1 h-1 z M17 6 h1 v1 h-1 z M18 6 h1 v1 h-1 z M19 6 h1 v1 h-1 z M20 6 h1 v1 h-1 z M21 6 h1 v1 h-1 z M22 6 h1 v1 h-1 z M23 6 h1 v1 h-1 z M25 6 h1 v1 h-1 z M26 6 h1 v1 h-1 z M27 6 h1 v1 h-1 z M28 6 h1 v1 h-1 z M29 6 h1 v1 h-1 z M30 6 h1 v1 h-1 z M31 6 h1 v1 h-1 z M32 6 h1 v1 h-1 z M33 6 h1 v1 h-1 z M34 6 h1 v1 h-1 z M35 6 h1 v1 h-1 z M36 6 h1 v1 h-1 z M37 6 h1 v1 h-1 z M38 6 h1 v1 h-1 z M39 6 h1 v1 h-1 z M40 6 h1 v1 h-1 z M41 6 h1 v1 h-1 z M42 6 h1 v1 h-1 z M0 0 h1 v1 h-1 z M1 0 h1 v1 h-1 z M2 0 h1 v1 h-1 z M3 0 h1 v1 h-1 z M4 0 h1 v1 h-1 z M5 0 h1 v1 h-1 z M6 0 h1 v1 h-1 z M7 0 h1 v1 h-1 z M8 0 h1 v1 h-1 z M9 0 h1 v1 h-1 z M10 0 h1 v1 h-1 z M11 0 h1 v1 h-1 z M12 0 h1 v1 h-1 z M13 0 h1 v1 h-1 z M14 0 h1 v1 h-1 z M15 0 h1 v1 h-1 z M16 0 h1 v1 h-1 z M17 0 h1 v1 h-1 z M18 0 h1 v1 h-1 z M19 0 h1 v1 h-1 z M20 0 h1 v1 h-1 z M21 0 h1 v1 h-1 z M22 0 h1 v1 h-1 z M23 0 h1 v1 h-1 z M24 0 h1 v1 h-1 z M25 0 h1 v1 h-1 z M26 0 h1 v1 h-1 z M27 0 h1 v1 h-1 z M28 0 h1 v1 h-1 z M29 0 h1 v1 h-1 z M30 0 h1 v1 h-1 z M31 0 h1 v1 h-1 z M32 0 h1 v1 h-1 z M33 0 h1 v1 h-1 z M34 0 h1 v1 h-1 z M35 0 h1 v1 h-1 z M36 0 h1 v1 h-1 z M37 0 h1 v1 h-1 z M38 0 h1 v1 h-1 z M39 0 h1 v1 h-1 z M40 0 h1 v1 h-1 z M41 0 h1 v1 h-1 z M42 0 h1 v1 h-1 z M0 8 h1 v1 h-1 z M1 8 h1 v1 h-1 z M2 8 h1 v1 h-1 z M3 8 h1 v1 h-1 z M4 8 h1 v1 h-1 z M6 8 h1 v1 h-1 z M7 8 h1 v1 h-1 z M9 8 h1 v1 h-1 z M10 8 h1 v1 h-1 z M12 8 h1 v1 h-1 z M13 8 h1 v1 h-1 z M14 8 h1 v1 h-1 z M15 8 h1 v1 h-1 z M17 8 h1 v1 h-1 z M20 8 h1 v1 h-1 z M21 8 h1 v1 h-1 z M25 8 h1 v1 h-1 z M26 8 h1 v1 h-1 z M27 8 h1 v1 h-1 z M29 8 h1 v1 h-1 z M30 8 h1 v1 h-1 z M31 8 h1 v1 h-1 z M33 8 h1 v1 h-1 z M35 8 h1 v1 h-1 z M36 8 h1 v1 h-1 z M37 8 h1 v1 h-1 z M39 8 h1 v1 h-1 z M40 8 h1 v1 h-1 z M41 8 h1 v1 h-1 z M42 8 h1 v1 h-1 z M0 9 h1 v1 h-1 z M1 9 h1 v1 h-1 z M2 9 h1 v1 h-1 z M3 9 h1 v1 h-1 z M5 9 h1 v1 h-1 z M6 9 h1 v1 h-1 z M7 9 h1 v1 h-1 z M8 9 h1 v1 h-1 z M11 9 h1 v1 h-1 z M12 9 h1 v1 h-1 z M13 9 h1 v1 h-1 z M14 9 h1 v1 h-1 z M15 9 h1 v1 h-1 z M18 9 h1 v1 h-1 z M19 9 h1 v1 h-1 z M21 9 h1 v1 h-1 z M22 9 h1 v1 h-1 z M23 9 h1 v1 h-1 z M25 9 h1 v1 h-1 z M26 9 h1 v1 h-1 z M27 9 h1 v1 h-1 z M28 9 h1 v1 h-1 z M30 9 h1 v1 h-1 z M32 9 h1 v1 h-1 z M33 9 h1 v1 h-1 z M35 9 h1 v1 h-1 z M36 9 h1 v1 h-1 z M37 9 h1 v1 h-1 z M39 9 h1 v1 h-1 z M40 9 h1 v1 h-1 z M41 9 h1 v1 h-1 z M42 9 h1 v1 h-1 z M0 10 h1 v1 h-1 z M1 10 h1 v1 h-1 z M2 10 h1 v1 h-1 z M3 10 h1 v1 h-1 z M5 10 h1 v1 h-1 z M6 10 h1 v1 h-1 z M7 10 h1 v1 h-1 z M8 10 h1 v1 h-1 z M9 10 h1 v1 h-1 z M10 10 h1 v1 h-1 z M11 10 h1 v1 h-1 z M12 10 h1 v1 h-1 z M13 10 h1 v1 h-1 z M14 10 h1 v1 h-1 z M15 10 h1 v1 h-1 z M17 10 h1 v1 h-1 z M18 10 h1 v1 h-1 z M19 10 h1 v1 h-1 z M21 10 h1 v1 h-1 z M22 10 h1 v1 h-1 z M23 10 h1 v1 h-1 z M25 10 h1 v1 h-1 z M26 10 h1 v1 h-1 z M27 10 h1 v1 h-1 z M28 10 h1 v1 h-1 z M29 10 h1 v1 h-1 z M31 10 h1 v1 h-1 z M32 10 h1 v1 h-1 z M33 10 h1 v1 h-1 z M35 10 h1 v1 h-1 z M36 10 h1 v1 h-1 z M37 10 h1 v1 h-1 z M39 10 h1 v1 h-1 z M40 10 h1 v1 h-1 z M41 10 h1 v1 h-1 z M42 10 h1 v1 h-1 z M0 11 h1 v1 h-1 z M1 11 h1 v1 h-1 z M2 11 h1 v1 h-1 z M3 11 h1 v1 h-1 z M5 11 h1 v1 h-1 z M6 11 h1 v1 h-1 z M7 11 h1 v1 h-1 z M8 11 h1 v1 h-1 z M9 11 h1 v1 h-1 z M11 11 h1 v1 h-1 z M12 11 h1 v1 h-1 z M13 11 h1 v1 h-1 z M14 11 h1 v1 h-1 z M15 11 h1 v1 h-1 z M20 11 h1 v1 h-1 z M21 11 h1 v1 h-1 z M22 11 h1 v1 h-1 z M23 11 h1 v1 h-1 z M25 11 h1 v1 h-1 z M26 11 h1 v1 h-1 z M27 11 h1 v1 h-1 z M28 11 h1 v1 h-1 z M30 11 h1 v1 h-1 z M32 11 h1 v1 h-1 z M33 11 h1 v1 h-1 z M34 11 h1 v1 h-1 z M36 11 h1 v1 h-1 z M38 11 h1 v1 h-1 z M39 11 h1 v1 h-1 z M40 11 h1 v1 h-1 z M41 11 h1 v1 h-1 z M42 11 h1 v1 h-1 z M0 12 h1 v1 h-1 z M1 12 h1 v1 h-1 z M2 12 h1 v1 h-1 z M3 12 h1 v1 h-1 z M5 12 h1 v1 h-1 z M6 12 h1 v1 h-1 z M7 12 h1 v1 h-1 z M8 12 h1 v1 h-1 z M9 12 h1 v1 h-1 z M10 12 h1 v1 h-1 z M12 12 h1 v1 h-1 z M13 12 h1 v1 h-1 z M14 12 h1 v1 h-1 z M15 12 h1 v1 h-1 z M17 12 h1 v1 h-1 z M18 12 h1 v1 h-1 z M19 12 h1 v1 h-1 z M20 12 h1 v1 h-1 z M21 12 h1 v1 h-1 z M27 12 h1 v1 h-1 z M29 12 h1 v1 h-1 z M30 12 h1 v1 h-1 z M31 12 h1 v1 h-1 z M33 12 h1 v1 h-1 z M34 12 h1 v1 h-1 z M35 12 h1 v1 h-1 z M37 12 h1 v1 h-1 z M38 12 h1 v1 h-1 z M39 12 h1 v1 h-1 z M40 12 h1 v1 h-1 z M41 12 h1 v1 h-1 z M42 12 h1 v1 h-1 z M0 14 h1 v1 h-1 z M1 14 h1 v1 h-1 z M2 14 h1 v1 h-1 z M3 14 h1 v1 h-1 z M4 14 h1 v1 h-1 z M5 14 h1 v1 h-1 z M6 14 h1 v1 h-1 z M7 14 h1 v1 h-1 z M8 14 h1 v1 h-1 z M9 14 h1 v1 h-1 z M10 14 h1 v1 h-1 z M11 14 h1 v1 h-1 z M12 14 h1 v1 h-1 z M13 14 h1 v1 h-1 z M14 14 h1 v1 h-1 z M15 14 h1 v1 h-1 z M16 14 h1 v1 h-1 z M17 14 h1 v1 h-1 z M18 14 h1 v1 h-1 z M19 14 h1 v1 h-1 z M20 14 h1 v1 h-1 z M21 14 h1 v1 h-1 z M22 14 h1 v1 h-1 z M23 14 h1 v1 h-1 z M24 14 h1 v1 h-1 z M25 14 h1 v1 h-1 z M26 14 h1 v1 h-1 z M27 14 h1 v1 h-1 z M28 14 h1 v1 h-1 z M29 14 h1 v1 h-1 z M30 14 h1 v1 h-1 z M31 14 h1 v1 h-1 z M32 14 h1 v1 h-1 z M33 14 h1 v1 h-1 z M34 14 h1 v1 h-1 z M35 14 h1 v1 h-1 z M36 14 h1 v1 h-1 z M37 14 h1 v1 h-1 z M38 14 h1 v1 h-1 z M39 14 h1 v1 h-1 z M40 14 h1 v1 h-1 z M41 14 h1 v1 h-1 z M42 14 h1 v1 h-1 z M0 16 h1 v1 h-1 z M1 16 h1 v1 h-1 z M2 16 h1 v1 h-1 z M3 16 h1 v1 h-1 z M4 16 h1 v1 h-1 z M5 16 h1 v1 h-1 z M6 16 h1 v1 h-1 z M7 16 h1 v1 h-1 z M8 16 h1 v1 h-1 z M9 16 h1 v1 h-1 z M10 16 h1 v1 h-1 z M11 16 h1 v1 h-1 z M12 16 h1 v1 h-1 z M13 16 h1 v1 h-1 z M14 16 h1 v1 h-1 z M15 16 h1 v1 h-1 z M16 16 h1 v1 h-1 z M17 16 h1 v1 h-1 z M18 16 h1 v1 h-1 z M19 16 h1 v1 h-1 z M20 16 h1 v1 h-1 z M21 16 h1 v1 h-1 z M22 16 h1 v1 h-1 z M23 16 h1 v1 h-1 z M24 16 h1 v1 h-1 z M25 16 h1 v1 h-1 z M26 16 h1 v1 h-1 z M27 16 h1 v1 h-1 z M28 16 h1 v1 h-1 z M29 16 h1 v1 h-1 z M30 16 h1 v1 h-1 z M31 16 h1 v1 h-1 z M32 16 h1 v1 h-1 z M33 16 h1 v1 h-1 z M34 16 h1 v1 h-1 z M35 16 h1 v1 h-1 z M36 16 h1 v1 h-1 z M37 16 h1 v1 h-1 z M38 16 h1 v1 h-1 z M39 16 h1 v1 h-1 z M40 16 h1 v1 h-1 z M41 16 h1 v1 h-1 z M42 16 h1 v1 h-1 z"/><path fill="#222034" d="M5 4 h1 v1 h-1 z M12 4 h1 v1 h-1 z M6 5 h1 v1 h-1 z M10 11 h1 v1 h-1 z M4 12 h1 v1 h-1 z M11 12 h1 v1 h-1 z"/><path fill="#5b6ee1" d="M12 7 h1 v1 h-1 z M11 8 h1 v1 h-1 z"/><path fill="#6abe30" d="M9 9 h1 v1 h-1 z M10 9 h1 v1 h-1 z"/><path fill="#76428a" d="M12 5 h1 v1 h-1 z M12 6 h1 v1 h-1 z"/><path fill="#ac3232" d="M4 10 h1 v1 h-1 z M4 11 h1 v1 h-1 z"/><path fill="#df7126" d="M5 8 h1 v1 h-1 z M4 9 h1 v1 h-1 z"/><path fill="#fbf236" d="M6 7 h1 v1 h-1 z M7 7 h1 v1 h-1 z M8 8 h1 v1 h-1 z"/><path fill="#ffffff" d="M24 6 h1 v1 h-1 z M16 8 h1 v1 h-1 z M18 8 h1 v1 h-1 z M19 8 h1 v1 h-1 z M22 8 h1 v1 h-1 z M23 8 h1 v1 h-1 z M24 8 h1 v1 h-1 z M28 8 h1 v1 h-1 z M32 8 h1 v1 h-1 z M34 8 h1 v1 h-1 z M38 8 h1 v1 h-1 z M16 9 h1 v1 h-1 z M17 9 h1 v1 h-1 z M20 9 h1 v1 h-1 z M24 9 h1 v1 h-1 z M29 9 h1 v1 h-1 z M31 9 h1 v1 h-1 z M34 9 h1 v1 h-1 z M38 9 h1 v1 h-1 z M16 10 h1 v1 h-1 z M20 10 h1 v1 h-1 z M24 10 h1 v1 h-1 z M30 10 h1 v1 h-1 z M34 10 h1 v1 h-1 z M38 10 h1 v1 h-1 z M16 11 h1 v1 h-1 z M17 11 h1 v1 h-1 z M18 11 h1 v1 h-1 z M19 11 h1 v1 h-1 z M24 11 h1 v1 h-1 z M29 11 h1 v1 h-1 z M31 11 h1 v1 h-1 z M35 11 h1 v1 h-1 z M37 11 h1 v1 h-1 z M16 12 h1 v1 h-1 z M22 12 h1 v1 h-1 z M23 12 h1 v1 h-1 z M24 12 h1 v1 h-1 z M25 12 h1 v1 h-1 z M26 12 h1 v1 h-1 z M28 12 h1 v1 h-1 z M32 12 h1 v1 h-1 z M36 12 h1 v1 h-1 z"/></g></svg>