<svg width="688" height="272" xmlns="http://www.w3.org/2000/svg" shape-rendering="crispEdges"><g transform="scale(16)" style="stroke-width:0.125;stroke:#ff0000"><path fill="#000000" d="M0 0h43v17h-43v-17M4 13h1v-4h1v-1h2v1h1v1h2v-1h1v-1h1v-4h-1v4h-1v1h-2v-1h-1v-1h-2v1h-1v1h-1v4M6 6h1v-1h-1v-1h-1v1h1v1M11 13h1v-1h-1v-1h-1v1h1v1M16 13h1v-1h3v-1h1v-2h-1v-1h-2v1h-1v-1h-1v5M22 9h2v3h-2v1h5v-1h-2v-4h-3v1M28 13h1v-1h1v-1h1v1h1v1h1v-1h-1v-1h-1v-1h1v-1h1v-1h-1v1h-1v1h-1v-1h-1v-1h-1v1h1v1h1v1h-1v1h-1v1M36 13h1v-1h1v-1h1v-3h-1v3h-1v1h-1v-1h-1v-3h-1v3h1v1h1v1M24 7h1v-1h-1v1M18 9h2v2h-3v-1h1v-1"/><path fill="#222034" d="M5 4h1v1h-1v-1M12 4h1v1h-1v-1M6 5h1v1h-1v-1M10 11h1v1h-1v-1M4 12h1v1h-1v-1M11 12h1v1h-1v-1"/><path fill="#5b6ee1" d="M12 7h1v1h-1v-1M11 8h1v1h-1v-1"/><path fill="#6abe30" d="M9 9h2v1h-2v-1"/><path fill="#76428a" d="M12 5h1v2h-1v-2"/><path fill="#ac3232" d="M4 10h1v2h-1v-2"/><path fill="#df7126" d="M5 8h1v1h-1v-1M4 9h1v1h-1v-1"/><path fill="#fbf236" d="M6 7h2v1h-2v-1M8 8h1v1h-1v-1"/><path fill="#ffffff" d="M24 6h1v1h-1v-1M16 8h1v1h1v1h-1v1h3v1h-3v1h-1v-5M18 8h2v1h-2v-1M22 8h3v4h2v1h-5v-1h2v-3h-2v-1M28 8h1v1h-1v-1M32 8h1v1h-1v-1M34 8h1v3h-1v-3M38 8h1v3h-1v-3M20 9h1v2h-1v-2M29 9h1v1h-1v-1M31 9h1v1h-1v-1M30 10h1v1h-1v-1M29 11h1v1h-1v-1M31 11h1v1h-1v-1M35 11h1v1h-1v-1M37 11h1v1h-1v-1M28 12h1v1h-1v-1M32 12h1v1h-1v-1M36 12h1v1h-1v-1"/></g></svg>