<svg width="344" height="136" xmlns="http://www.w3.org/2000/svg" shape-rendering="crispEdges"><g transform="scale(8)" style="stroke-width:0.125;stroke:#ff0000"><path fill="#000000" d="M0 15 h43 v2 h-43 z M0 6 h12 v1 h-12 z M13 6 h11 v2 h-11 z M25 6 h18 v2 h-18 z M0 7 h6 v1 h-6 z M8 7 h4 v1 h-4 z M24 7 h1 v1 h-1 z M0 8 h5 v1 h-5 z M6 8 h2 v7 h-2 z M9 8 h2 v1 h-2 z M12 8 h4 v7 h-4 z M17 8 h1 v1 h-1 z M20 8 h2 v1 h-2 z M25 8 h3 v4 h-3 z M29 8 h3 v1 h-3 z M33 8 h1 v7 h-1 z M35 8 h3 v3 h-3 z M39 8 h4 v7 h-4 z M5 12 h1 v3 h-1 z M8 12 h3 v3 h-3 z M17 12 h5 v3 h-5 z M27 12 h1 v3 h-1 z M29 12 h3 v3 h-3 z M34 12 h2 v3 h-2 z M37 12 h2 v3 h-2 z M4 13 h1 v2 h-1 z M11 13 h1 v2 h-1 z M16 13 h1 v2 h-1 z M22 13 h5 v2 h-5 z M28 13 h1 v2 h-1 z M32 13 h1 v2 h-1 z M36 13 h1 v2 h-1 z M0 0 h43 v4 h-43 z M0 9 h4 v6 h-4 z M5 9 h1 v3 h-1 z M8 9 h1 v3 h-1 z M11 9 h1 v3 h-1 z M18 9 h2 v2 h-2 z M21 9 h3 v3 h-3 z M28 9 h1 v3 h-1 z M30 9 h1 v1 h-1 z M32 9 h1 v3 h-1 z M9 10 h2 v1 h-2 z M17 10 h1 v1 h-1 z M29 10 h1 v1 h-1 z M31 10 h1 v1 h-1 z M9 11 h1 v1 h-1 z M20 11 h1 v1 h-1 z M30 11 h1 v1 h-1 z M34 11 h1 v1 h-1 z M36 11 h1 v1 h-1 z M38 11 h1 v1 h-1 z M0 4 h5 v2 h-5 z M6 4 h6 v1 h-6 z M13 4 h30 v2 h-30 z M5 5 h1 v1 h-1 z M7 5 h5 v1 h-5 z"/><path fill="#222034" d="M4 12 h1 v1 h-1 z M11 12 h1 v1 h-1 z M10 11 h1 v1 h-1 z M5 4 h1 v1 h-1 z M12 4 h1 v1 h-1 z M6 5 h1 v1 h-1 z"/><path fill="#5b6ee1" d="M12 7 h1 v1 h-1 z M11 8 h1 v1 h-1 z"/><path fill="#6abe30" d="M9 9 h2 v1 h-2 z"/><path fill="#76428a" d="M12 6 h1 v1 h-1 z M12 5 h1 v1 h-1 z"/><path fill="#ac3232" d="M4 10 h1 v2 h-1 z"/><path fill="#df7126" d="M5 8 h1 v1 h-1 z M4 9 h1 v1 h-1 z"/><path fill="#fbf236" d="M6 7 h2 v1 h-2 z M8 8 h1 v1 h-1 z"/><path fill="#ffffff" d="M24 6 h1 v1 h-1 z M16 8 h1 v5 h-1 z M18 8 h2 v1 h-2 z M22 8 h3 v1 h-3 z M28 8 h1 v1 h-1 z M32 8 h1 v1 h-1 z M34 8 h1 v3 h-1 z M38 8 h1 v3 h-1 z M22 12 h5 v1 h-5 z M28 12 h1 v1 h-1 z M32 12 h1 v1 h-1 z M36 12 h1 v1 h-1 z M17 9 h1 v1 h-1 z M20 9 h1 v2 h-1 z M24 9 h1 v3 h-1 z M29 9 h1 v1 h-1 z M31 9 h1 v1 h-1 z M30 10 h1 v1 h-1 z M17 11 h3 v1 h-3 z M29 11 h1 v1 h-1 z M31 11 h1 v1 h-1 z M35 11 h1 v1 h-1 z M37 11 h1 v1 h-1 z"/></g></svg>